# xmcd CD database file
# Copyright (C) 1993-1998 Ti Kan
#
# Track frame offsets:
#  150
#  13350
#  38095
#  58558
#  79908
#  106494
#  149245
#  170175
#  199949
#  226729
#  263684
#  286705
#  300129
#
# Disc length: 4241 seconds
#
# Revision: 1
# Processed by: cddbd v1.4b41PL1 Copyright (c) Steve Scherf et al.
# Submitted via: CDWizzard Release:4.31
#
DISCID=b3108f0d
DTITLE=Stevie Ray Vaughan And Double Trouble - Look At Little Stevie
DYEAR=1900
DGENRE=
TTITLE0=Scuttle Buttin'
TTITLE1=Soul to Soul
TTITLE2=Lookin' at You
TTITLE3=Look at Little Sister
TTITLE4=Mary Had a Little Lamb
TTITLE5=Ain't Gone n' Give Up On Love
TTITLE6=Superstition
TTITLE7=Willie The Wimp
TTITLE8=Cold Shot
TTITLE9=Couldn't Stand The Weather
TTITLE10=Let The Good Times Roll
TTITLE11=Lovestruck Baby
TTITLE12=Rude Mood
EXTD=Live in Pittsburgh, PA, 1987
EXTT0=
EXTT1=
EXTT2=
EXTT3=
EXTT4=
EXTT5=
EXTT6=
EXTT7=
EXTT8=
EXTT9=
EXTT10=
EXTT11=
EXTT12=
PLAYORDER=
